<?xml version="1.0"?>
<svg xmlns="http://www.w3.org/2000/svg" xmlns:xlink="http://www.w3.org/1999/xlink" xmlns:svgjs="http://svgjs.com/svgjs" version="1.1" width="512" height="512" x="0" y="0" viewBox="0 0 512 512" style="enable-background:new 0 0 512 512" xml:space="preserve"><g><linearGradient xmlns="http://www.w3.org/2000/svg" id="a" gradientUnits="userSpaceOnUse" x1="255.9999435855" x2="255.9999435855" y1=".0004995855" y2="511.6436355855"><stop stop-opacity="1" stop-color="#0054a0" offset="0"/><stop stop-opacity="1" stop-color="#009efd" offset="1"/></linearGradient><path xmlns="http://www.w3.org/2000/svg" d="m418.78125 334.609375c15.5625-11.691406 26.828125-27.667969 32.601562-46.230469l60.617188-179.453125h-41.859375l-56.707031 166.902344-.167969.519531c-6.601563 21.453125-26.550781 36.433594-48.519531 36.433594h-224.023438l-22.683594-251.527344c-1.480468-16.765625-9.132812-32.261718-21.542968-43.625-12.414063-11.367187-28.523438-17.628906-45.351563-17.628906h-51.144531v39.972656h51.144531c14.1875 0 25.828125 10.65625 27.078125 24.832032l31.28125 346.847656c.007813.0625.011719.125.019532.183594 3.023437 30.359374 25.644531 54.140624 54.65625 59.402343 8.128906 23.488281 30.453124 40.40625 56.667968 40.40625 25.679688 0 47.632813-16.234375 56.160156-38.972656h45.570313c8.527344 22.738281 30.480469 38.972656 56.160156 38.972656 33.0625 0 59.957031-26.898437 59.957031-59.957031 0-33.0625-26.894531-59.960938-59.957031-59.960938-26.425781 0-48.894531 17.191407-56.859375 40.972657h-44.171875c-7.960937-23.78125-30.433593-40.972657-56.859375-40.972657-25.378906 0-47.109375 15.859376-55.84375 38.179688-8.515625-3.890625-14.683594-12.046875-15.695312-21.949219l-4.980469-55.199219h220.417969c19.546875-.003906 38.234375-6.277343 54.035156-18.148437zm-40.046875 97.089844c11.023437 0 19.988281 8.964843 19.988281 19.984375 0 11.023437-8.964844 19.988281-19.988281 19.988281-11.019531 0-19.984375-8.964844-19.984375-19.988281 0-11.019532 8.964844-19.984375 19.984375-19.984375zm-157.886719 0c11.019532 0 19.984375 8.964843 19.984375 19.984375 0 11.023437-8.964843 19.988281-19.984375 19.988281-11.023437 0-19.988281-8.964844-19.988281-19.988281 0-11.019532 8.964844-19.984375 19.988281-19.984375zm89.9375-271.8125h-39.972656v-39.96875h39.972656zm-119.917968-14.539063v44.59375c0 27.550782 22.414062 49.964844 49.964843 49.964844h99.929688c27.550781 0 49.964843-22.414062 49.964843-49.964844v-44.390625l3.949219 3.601563 26.9375-29.53125-130.929687-119.445313-130.929688 119.445313 26.941406 29.53125zm159.886718-36.265625v80.859375c0 5.507813-4.480468 9.992188-9.992187 9.992188h-99.929688c-5.511719 0-9.992187-4.484375-9.992187-9.992188v-81.0625l59.84375-54.597656zm0 0" fill="url(#a)" data-original="url(#a)" style=""/></g></svg>
