<?xml version="1.0" encoding="utf-8"?>
<svg version="1.1" id="Layer_1" x="0px" y="0px" viewBox="0 0 1920 1080" style="enable-background:new 0 0 1920 1080;" xmlns="http://www.w3.org/2000/svg">
  <style type="text/css">
	.st0{fill:#FF4C29;}
	.st1{fill:#334756;}
	.st2{display:none;fill:none;stroke:#334756;stroke-miterlimit:10;}
	.st3{display:none;fill:#334756;}
</style>
  <g>
    <g>
      <polygon class="st0" points="524.99,356.77 524.99,456.27 444.91,456.27 444.91,389.94 364.83,309.86 284.76,389.94 &#10;&#9;&#9;&#9;284.76,456.27 204.68,456.27 204.68,356.77 364.83,196.62 &#9;&#9;" style="fill: rgb(239, 161, 59);"/>
    </g>
    <g>
      <rect x="375.84" y="389.81" class="st0" width="25.02" height="25.02" style="fill: rgb(239, 161, 59);"/>
    </g>
    <rect x="328.8" y="389.81" class="st1" width="25.02" height="25.02" style="stroke-width: 2px; fill: rgb(8, 32, 50);"/>
    <rect x="328.8" y="436.85" class="st1" width="25.02" height="25.02" style="stroke-width: 2px; fill: rgb(8, 32, 50);"/>
    <rect x="375.84" y="436.85" class="st1" width="25.02" height="25.02" style="stroke-width: 2px; fill: rgb(8, 32, 50);"/>
    <path class="st1" d="M364.84,543.19c-43.96,0-79.58-35.62-79.58-79.58h-79.58c0,87.89,159.15,226,159.15,226 s159.15-138.11,159.15-226h-79.58C444.41,507.57,408.79,543.19,364.84,543.19z" style="stroke-width: 2px; fill: rgb(8, 32, 50);"/>
  </g>
  <g>
    <path class="st0" d="M760.85,485.29c0,44.17-34.42,67.11-73.14,67.11c-30.4,0-57.93-13.48-70.27-43.02l39.58-22.94 c4.59,13.19,13.19,21.22,30.69,21.22c18.93,0,27.25-10.04,27.25-22.37c0-12.33-8.32-22.37-27.25-22.37h-9.46l-17.5-26.1 l36.42-46.18h-73.42v-43.02h129.06v37.28l-34.7,44.17C742.78,437.68,760.85,457.47,760.85,485.29z" style="fill: rgb(239, 161, 59);"/>
    <path class="st0" d="M932.36,404.98v143.4h-43.02v-13.48c-9.46,10.9-23.52,17.5-42.73,17.5c-37.57,0-68.55-32.98-68.55-75.72 c0-42.73,30.98-75.72,68.55-75.72c19.22,0,33.27,6.6,42.73,17.5v-13.48H932.36z M889.34,476.68c0-21.51-14.34-34.99-34.13-34.99 c-19.79,0-34.13,13.48-34.13,34.99c0,21.51,14.34,34.99,34.13,34.99C875,511.67,889.34,498.19,889.34,476.68z" style="fill: rgb(239, 161, 59);"/>
    <path class="st1" d="M1111.04,404.98v200.76h-43.02v-70.84c-9.46,10.9-23.52,17.5-42.73,17.5c-37.57,0-68.55-32.98-68.55-75.72 c0-42.73,30.97-75.72,68.55-75.72c19.22,0,33.27,6.6,42.73,17.5v-13.48H1111.04z M1068.02,476.68c0-21.51-14.34-34.99-34.13-34.99 c-19.79,0-34.13,13.48-34.13,34.99c0,21.51,14.34,34.99,34.13,34.99C1053.68,511.67,1068.02,498.19,1068.02,476.68z" style="paint-order: stroke; stroke-width: 2px; fill: rgb(8, 32, 50);"/>
    <path class="st1" d="M1289.72,404.98v143.4h-43.02v-13.48c-9.46,10.9-23.52,17.5-42.73,17.5c-37.57,0-68.55-32.98-68.55-75.72 c0-42.73,30.97-75.72,68.55-75.72c19.22,0,33.27,6.6,42.73,17.5v-13.48H1289.72z M1246.7,476.68c0-21.51-14.34-34.99-34.13-34.99 c-19.79,0-34.13,13.48-34.13,34.99c0,21.51,14.34,34.99,34.13,34.99C1232.36,511.67,1246.7,498.19,1246.7,476.68z" style="paint-order: stroke; stroke-width: 2px; fill: rgb(8, 32, 50);"/>
    <path class="st1" d="M1468.4,404.98v143.4h-43.02v-13.48c-9.46,10.9-23.52,17.5-42.73,17.5c-37.57,0-68.55-32.98-68.55-75.72 c0-42.73,30.97-75.72,68.55-75.72c19.22,0,33.27,6.6,42.73,17.5v-13.48H1468.4z M1425.38,476.68c0-21.51-14.34-34.99-34.13-34.99 c-19.79,0-34.13,13.48-34.13,34.99c0,21.51,14.34,34.99,34.13,34.99C1411.04,511.67,1425.38,498.19,1425.38,476.68z" style="paint-order: stroke; stroke-width: 2px; fill: rgb(8, 32, 50);"/>
    <path class="st1" d="M1585.99,402.11v48.76c-17.78-2.87-43.02,4.3-43.02,32.7v64.82h-43.02v-143.4h43.02v25.53 C1548.7,411.29,1567.92,402.11,1585.99,402.11z" style="paint-order: stroke; stroke-width: 2px; fill: rgb(8, 32, 50);"/>
  </g>
  <rect x="118.58" y="197" class="st2" width="492.5" height="492.5"/>
  <rect x="611" y="3" class="st3" width="194" height="194"/>
  <rect x="611" y="690" class="st3" width="194" height="194"/>
  <rect x="805" y="540" class="st3" width="150" height="150"/>
  <rect x="805" y="197" class="st3" width="150" height="150"/>
</svg>